HIERARCHY
ROOT Hips
{
    OFFSET 0.000000 0.000000 0.000000
    CHANNELS 6 Xposition Yposition Zposition Zrotation Xrotation Yrotation
    JOINT Spine
    {
        OFFSET -0.000000 7.750029 0.000000
        CHANNELS 3 Zrotation Xrotation Yrotation
        JOINT Spine1
        {
            OFFSET -0.000000 19.767460 0.000000
            CHANNELS 3 Zrotation Xrotation Yrotation
            JOINT Neck
            {
                OFFSET -0.000000 19.686279 1.789662
                CHANNELS 3 Zrotation Xrotation Yrotation
                JOINT Head
                {
                    OFFSET -0.000000 13.231757 -1.890251
                    CHANNELS 3 Zrotation Xrotation Yrotation
                    End Site
                    {
                        OFFSET -0.000000 23.628138 0.000000
                    }
                }
            }
            JOINT LeftShoulder
            {
                OFFSET 3.736819 16.910755 -0.280982
                CHANNELS 3 Zrotation Xrotation Yrotation
                JOINT LeftArm
                {
                    OFFSET 13.626117 0.000000 0.000000
                    CHANNELS 3 Zrotation Xrotation Yrotation
                    JOINT LeftForeArm
                    {
                        OFFSET 31.364786 0.000000 0.000000
                        CHANNELS 3 Zrotation Xrotation Yrotation
                        JOINT LeftHand
                        {
                            OFFSET 23.389509 0.000000 0.000000
                            CHANNELS 3 Zrotation Xrotation Yrotation
                            End Site
                            {
                                OFFSET 14.176883 0.000000 0.000000
                            }
                        }
                    }
                }
            }
            JOINT RightShoulder
            {
                OFFSET -3.821718 16.910755 -0.280982
                CHANNELS 3 Zrotation Xrotation Yrotation
                JOINT RightArm
                {
                    OFFSET -13.626117 0.000000 0.000000
                    CHANNELS 3 Zrotation Xrotation Yrotation
                    JOINT RightForeArm
                    {
                        OFFSET -31.364786 0.000000 0.000000
                        CHANNELS 3 Zrotation Xrotation Yrotation
                        JOINT RightHand
                        {
                            OFFSET -23.389509 0.000000 0.000000
                            CHANNELS 3 Zrotation Xrotation Yrotation
                            End Site
                            {
                                OFFSET -14.176883 0.000000 0.000000
                            }
                        }
                    }
                }
            }
        }
    }
    JOINT LeftUpLeg
    {
        OFFSET 9.451255 0.000000 0.000000
        CHANNELS 3 Zrotation Xrotation Yrotation
        JOINT LeftLeg
        {
            OFFSET -0.000000 -41.898624 0.000000
            CHANNELS 3 Zrotation Xrotation Yrotation
            JOINT LeftFoot
            {
                OFFSET -0.000000 -38.481331 0.000000
                CHANNELS 3 Zrotation Xrotation Yrotation
                JOINT LeftToeBase
                {
                    OFFSET -0.000000 -6.143315 14.176883
                    CHANNELS 3 Zrotation Xrotation Yrotation
                    End Site
                    {
                        OFFSET -0.000000 0.000000 3.780502
                    }
                }
            }
        }
    }
    JOINT RightUpLeg
    {
        OFFSET -9.451255 0.000000 0.000000
        CHANNELS 3 Zrotation Xrotation Yrotation
        JOINT RightLeg
        {
            OFFSET -0.000000 -41.898624 0.000000
            CHANNELS 3 Zrotation Xrotation Yrotation
            JOINT RightFoot
            {
                OFFSET -0.000000 -38.481331 0.000000
                CHANNELS 3 Zrotation Xrotation Yrotation
                JOINT RightToeBase
                {
                    OFFSET -0.000000 -6.143315 14.176883
                    CHANNELS 3 Zrotation Xrotation Yrotation
                    End Site
                    {
                        OFFSET -0.000000 0.000000 3.780502
                    }
                }
            }
        }
    }
}
MOTION
Frames:    14
Frame Time:    0.010000
-16.093712    89.383682    -3.388919    2.524698    4.718482    165.184372    0.344728    1.530114    0.656272    1.439241    4.770082    0.600983    -5.143011    38.515305    8.663359    -7.497246    -28.533110    4.972950    9.799689    1.157082    -5.605312    -70.571045    59.235996    -13.401043    11.094124    -32.743671    -89.032616    -0.799693    -23.091558    4.644327    -10.454162    4.979372    2.211314    63.182056    50.521275    26.407251    -14.309741    -32.879807    108.619019    13.543459    -15.319882    -7.483471    3.508183    -0.954787    -1.160554    -4.451338    18.365311    -4.966620    2.769130    -16.591099    23.432684    0.000000    0.000000    0.000000    -9.336126    2.833607    -3.775081    5.450271    22.639301    3.596651    -0.454016    -13.060640    -22.335415    0.000000    0.000000    0.000000    
-15.875493    89.380661    -3.223143    2.357864    4.805413    165.694656    -0.033136    1.866462    0.479935    1.690665    4.397787    0.414484    -5.168713    38.465897    8.654562    -7.472314    -28.459436    4.975071    9.793576    1.217799    -5.554299    -70.207840    59.328060    -13.549569    10.404266    -32.578369    -89.546669    0.130813    -23.424574    5.040859    -10.437826    4.967230    2.228297    62.985355    50.554565    26.693960    -14.267837    -32.754044    108.616837    13.562157    -15.249056    -7.592074    3.531830    -1.281934    -1.418338    -4.545341    18.799805    -4.874089    2.601595    -16.510149    23.248329    0.000000    0.000000    0.000000    -9.146011    3.239333    -4.129719    5.210691    21.993866    3.365996    -0.393734    -13.567532    -22.611038    0.000000    0.000000    0.000000    
-15.685026    89.349045    -3.100621    2.284465    4.798689    165.948944    -0.104439    2.035350    0.391525    1.706542    4.086620    0.328792    -5.153530    38.488270    8.690575    -7.560071    -28.416954    4.983872    9.799849    1.126632    -5.577477    -70.274010    59.335083    -13.193698    10.315617    -32.466656    -89.646851    0.235555    -23.364288    5.002506    -10.460052    5.230285    2.166920    62.552063    50.709209    27.381758    -14.425662    -32.815128    108.404060    13.677065    -15.168118    -7.463724    3.627768    -1.545118    -1.589945    -4.606447    19.125238    -4.813395    2.493302    -16.596798    23.121132    0.000000    0.000000    0.000000    -8.913276    3.517916    -4.381524    4.890731    21.359827    3.078868    0.897686    -14.384460    -22.610683    0.000000    0.000000    0.000000    
-15.453047    89.338501    -3.205104    2.267298    4.721786    165.128784    -0.056232    1.492651    0.844242    1.644972    4.490900    0.779085    -5.214165    38.437019    8.710718    -7.575495    -28.356380    4.992095    9.810305    1.037883    -5.499411    -70.168945    59.457378    -13.086340    10.496753    -32.343395    -89.474770    0.185243    -23.093334    4.790693    -10.468316    5.201476    2.191249    62.507309    50.867268    27.530285    -14.637302    -32.886200    108.294930    13.785892    -14.999629    -7.458763    3.796182    -1.209548    -0.740526    -4.593581    18.849245    -5.268859    2.515051    -16.757853    23.479645    0.000000    0.000000    0.000000    -8.719637    3.646008    -3.572949    4.758195    20.680492    2.800730    1.359328    -14.508928    -22.862753    0.000000    0.000000    0.000000    
-15.227443    89.248306    -2.891051    2.358311    4.232831    165.818604    0.095199    1.543666    0.530645    1.698833    3.911412    0.473941    -4.903921    38.528126    8.732394    -8.084688    -28.433620    4.879894    9.879760    1.031243    -5.449011    -70.008766    60.062885    -12.984542    11.349360    -32.801819    -88.937027    0.049639    -22.905493    4.465153    -10.407046    5.178942    2.248515    62.338341    51.033043    27.769476    -14.804788    -32.883228    108.213509    13.568393    -14.788737    -7.553473    4.273635    -2.297424    -1.075381    -4.682496    19.599083    -5.630041    2.538860    -17.122017    23.553440    0.000000    0.000000    0.000000    -8.100482    3.436836    -4.304795    4.598139    20.227390    2.176335    1.562091    -14.808095    -22.737307    0.000000    0.000000    0.000000    
-15.076162    89.299202    -2.859542    2.190598    4.555382    166.017929    0.000829    1.862817    0.485970    1.559525    3.783256    0.434556    -4.937762    38.438732    8.743544    -8.009169    -28.252029    4.930037    9.927287    1.055131    -5.452310    -69.584900    59.983109    -13.256147    11.113107    -32.615128    -88.998039    0.555133    -22.889425    4.568339    -10.383826    5.133999    2.298198    62.163750    51.078995    27.996021    -14.788798    -32.707542    108.237991    13.263211    -14.591610    -7.655186    4.070716    -2.083727    -1.334099    -4.591861    19.617256    -5.622422    2.327110    -16.798059    23.579815    0.000000    0.000000    0.000000    -8.152306    4.060125    -4.497053    4.589612    19.618536    1.731850    2.269201    -15.337258    -22.540611    0.000000    0.000000    0.000000    
-14.886919    89.296196    -2.830591    2.196015    4.488438    165.858795    0.142421    1.686894    0.604671    1.415971    3.846407    0.559298    -4.738991    38.418644    8.698736    -8.273942    -28.185865    4.833027    9.986217    1.046519    -5.407571    -69.446808    59.982643    -13.282957    11.241866    -32.614738    -88.879631    -0.722006    -22.837320    4.397171    -10.312792    5.199373    2.301123    61.886715    51.190926    28.316355    -14.890580    -32.740761    108.237221    13.038282    -14.481307    -7.736754    4.207238    -2.090390    -1.154644    -4.558823    19.605001    -5.636460    2.201628    -16.863894    23.568003    0.000000    0.000000    0.000000    -7.925581    4.204024    -4.458738    4.587398    19.222134    1.225660    3.562130    -16.396578    -22.696362    0.000000    0.000000    0.000000    
-14.703894    89.299156    -2.777771    2.168782    4.468841    165.897156    0.270956    1.656778    0.607028    1.236450    3.810666    0.569836    -4.598824    38.387146    8.695562    -8.427226    -28.155748    4.806744    10.169797    1.116567    -5.256456    -69.295929    60.121239    -13.475661    11.309132    -32.661854    -88.742142    -0.468679    -22.842466    4.308544    -10.206749    5.190335    2.332502    61.572800    51.438198    28.599676    -15.107947    -32.916012    108.184113    12.794708    -14.387763    -7.794898    4.293380    -2.136178    -1.147697    -4.506932    19.603380    -5.522771    2.026073    -16.823189    23.429996    0.000000    0.000000    0.000000    -7.751361    4.417695    -4.425287    4.663672    18.809301    0.867225    3.440244    -16.422020    -22.971581    0.000000    0.000000    0.000000    
-14.513935    89.308334    -2.717891    2.147618    4.451254    165.921143    0.339907    1.552023    0.649874    1.344380    3.873806    0.609134    -4.897597    38.386417    8.739058    -8.361188    -28.160276    4.809574    9.928229    1.096035    -5.386455    -69.036865    59.962929    -13.395731    11.351818    -32.522526    -88.683044    -0.282757    -22.654533    4.158529    -10.454804    5.260405    2.358462    61.476784    51.399288    28.952103    -15.213251    -32.789749    108.200462    12.541894    -14.115203    -8.213108    4.396456    -2.168869    -1.130324    -4.469423    19.601332    -5.555164    1.613912    -16.991112    23.468691    0.000000    0.000000    0.000000    -7.565127    4.565152    -4.615139    4.640568    18.533152    0.620868    4.381075    -16.816734    -22.913933    0.000000    0.000000    0.000000    
-14.328983    89.320244    -2.658199    2.126915    4.436789    165.939407    0.441412    1.486721    0.684336    1.208413    3.901068    0.648912    -4.492856    38.354324    8.679203    -8.898682    -28.015171    4.646399    10.072698    0.977301    -5.446226    -69.326820    59.736748    -13.105571    11.639697    -32.162624    -88.349571    0.348102    -22.037493    3.551231    -10.354527    5.143481    2.386827    61.361748    51.520916    28.984726    -15.931612    -32.747463    107.713058    12.243447    -13.151526    -7.506128    4.479291    -2.179124    -1.111985    -4.416893    19.568123    -5.416219    1.722505    -16.746992    23.251026    0.000000    0.000000    0.000000    -7.405497    4.715799    -4.714226    4.680340    18.199240    0.128697    4.383861    -16.842373    -22.572231    0.000000    0.000000    0.000000    
-14.133397    89.347687    -2.585985    2.092271    4.488309    166.018402    0.445247    1.536178    0.683101    1.207847    3.902562    0.647918    -4.553535    38.081909    8.674410    -8.723110    -27.658300    4.734657    10.134278    0.983569    -5.430866    -69.207695    59.724743    -13.247788    12.118415    -31.958458    -87.943169    1.132118    -21.430475    3.320094    -10.261419    5.133734    2.346922    61.018593    51.742683    29.211168    -15.553983    -33.050636    108.267815    12.110953    -13.866790    -8.107190    4.558735    -2.161947    -1.201077    -4.400001    19.546581    -5.405634    1.581271    -16.604891    23.234980    0.000000    0.000000    0.000000    -7.273997    4.965152    -4.792171    4.740016    17.814203    -0.073243    4.085813    -16.721125    -22.576296    0.000000    0.000000    0.000000    
-13.950986    89.354408    -2.514891    2.041446    4.416976    166.022171    0.555088    1.417592    0.668651    1.088148    3.932849    0.638160    -5.133393    37.661724    8.630936    -7.666107    -27.194834    5.012455    10.156270    0.857408    -5.438730    -69.489853    59.674721    -12.822967    11.993173    -31.844805    -88.174995    2.071867    -21.342958    3.801145    -10.220222    4.825902    2.703256    61.415585    51.848564    28.621912    -15.745716    -33.216976    108.400269    12.016352    -13.743432    -8.267025    4.641652    -2.255313    -1.172960    -4.428008    19.573126    -4.903091    1.036785    -16.855446    22.878132    0.000000    0.000000    0.000000    -7.152993    5.041482    -5.053585    4.714063    17.515999    0.015482    4.111336    -16.811544    -22.611605    0.000000    0.000000    0.000000    
-13.700706    89.363907    -2.371016    2.040312    4.160239    166.024918    0.537705    1.239022    0.666728    1.203125    3.857340    0.632059    -5.070880    37.577087    8.655658    -7.805501    -27.056858    5.013799    10.271257    1.019780    -5.267941    -69.179840    59.667213    -13.227757    12.334906    -31.820290    -87.901077    2.249026    -21.050570    3.720911    -10.155421    4.350557    3.131253    61.999496    51.887329    27.666508    -15.841698    -33.236927    108.676598    11.849092    -13.519532    -8.420115    4.905029    -2.602698    -0.890306    -4.367994    19.667458    -4.979265    1.105391    -16.593618    22.610840    0.000000    0.000000    0.000000    -6.855368    4.948073    -5.083893    4.691970    17.147114    0.199676    4.107738    -16.998232    -22.955357    0.000000    0.000000    0.000000    
-13.568274    89.367828    -2.345227    1.896449    4.348995    166.135635    0.567897    1.386455    0.622612    0.974252    3.844628    0.596817    -4.840689    37.553467    8.644123    -8.011056    -27.021132    4.979012    10.434520    1.110170    -5.193756    -69.209671    59.650124    -13.324471    12.672670    -31.863165    -87.687424    2.426091    -20.825003    3.678276    -10.117836    5.012562    2.516679    60.268478    52.182552    29.752956    -16.125771    -33.344612    108.165070    11.601334    -13.392492    -8.012030    4.745967    -2.420506    -1.019412    -4.249821    19.545244    -4.869465    0.561387    -16.709003    22.588404    0.000000    0.000000    0.000000    -6.974958    5.512475    -5.512558    4.699502    16.459705    0.705694    4.002035    -17.075077    -23.116705    0.000000    0.000000    0.000000    
